<mxfile host="65bd71144e" agent="Mozilla/5.0 (Macintosh; Intel Mac OS X 10_15_7) AppleWebKit/537.36 (KHTML, like Gecko) Code/1.101.1 Chrome/134.0.6998.205 Electron/35.5.1 Safari/537.36" version="27.1.6">
    <diagram id="Ln3ZBJWsajr8-yhkkX9h" name="Page-1">
        <mxGraphModel dx="703" dy="528" grid="1" gridSize="10" guides="1" tooltips="1" connect="1" arrows="1" fold="1" page="1" pageScale="1" pageWidth="850" pageHeight="1100" math="0" shadow="0">
            <root>
                <mxCell id="0"/>
                <mxCell id="1" parent="0"/>
                <mxCell id="Jtuv1Z3wtPB-kP8Pw_JZ-289" style="edgeStyle=orthogonalEdgeStyle;rounded=0;orthogonalLoop=1;jettySize=auto;html=1;exitX=0.5;exitY=1;exitDx=0;exitDy=0;shadow=0;endSize=1;strokeWidth=2;fillColor=#d5e8d4;strokeColor=#82b366;" parent="1" source="Jtuv1Z3wtPB-kP8Pw_JZ-287" edge="1">
                    <mxGeometry relative="1" as="geometry">
                        <mxPoint x="500" y="460" as="targetPoint"/>
                        <Array as="points">
                            <mxPoint x="395" y="320"/>
                            <mxPoint x="150" y="320"/>
                            <mxPoint x="150" y="440"/>
                            <mxPoint x="500" y="440"/>
                        </Array>
                    </mxGeometry>
                </mxCell>
                <mxCell id="Jtuv1Z3wtPB-kP8Pw_JZ-283" style="edgeStyle=orthogonalEdgeStyle;rounded=0;orthogonalLoop=1;jettySize=auto;html=1;exitX=0.5;exitY=1;exitDx=0;exitDy=0;shadow=0;endSize=1;strokeWidth=2;entryX=0;entryY=0.5;entryDx=0;entryDy=0;fillColor=#ffe6cc;strokeColor=#d79b00;" parent="1" source="Jtuv1Z3wtPB-kP8Pw_JZ-94" target="Jtuv1Z3wtPB-kP8Pw_JZ-287" edge="1">
                    <mxGeometry relative="1" as="geometry">
                        <mxPoint x="420" y="430" as="sourcePoint"/>
                        <mxPoint x="420.20000000000005" y="287.6" as="targetPoint"/>
                        <Array as="points">
                            <mxPoint x="410" y="430"/>
                            <mxPoint x="140" y="430"/>
                            <mxPoint x="140" y="300"/>
                        </Array>
                    </mxGeometry>
                </mxCell>
                <mxCell id="Jtuv1Z3wtPB-kP8Pw_JZ-158" value="" style="shape=parallelogram;perimeter=parallelogramPerimeter;whiteSpace=wrap;html=1;fixedSize=1;size=20;fillColor=#e1d5e7;strokeColor=#9673a6;" parent="1" vertex="1">
                    <mxGeometry x="550" y="510" width="60" height="10" as="geometry"/>
                </mxCell>
                <mxCell id="Jtuv1Z3wtPB-kP8Pw_JZ-159" value="" style="rounded=0;whiteSpace=wrap;html=1;strokeColor=#9673a6;fillColor=#CFA0E6;" parent="1" vertex="1">
                    <mxGeometry x="550" y="520" width="40" height="20" as="geometry"/>
                </mxCell>
                <mxCell id="Jtuv1Z3wtPB-kP8Pw_JZ-160" value="" style="shape=parallelogram;perimeter=parallelogramPerimeter;whiteSpace=wrap;html=1;fixedSize=1;direction=south;size=10;flipV=1;strokeColor=#9673a6;fillColor=#D8C4E7;" parent="1" vertex="1">
                    <mxGeometry x="590" y="510" width="20" height="30" as="geometry"/>
                </mxCell>
                <mxCell id="Jtuv1Z3wtPB-kP8Pw_JZ-161" value="" style="shape=parallelogram;perimeter=parallelogramPerimeter;whiteSpace=wrap;html=1;fixedSize=1;size=20;fillColor=#e1d5e7;strokeColor=#9673a6;" parent="1" vertex="1">
                    <mxGeometry x="570" y="500" width="60" height="10" as="geometry"/>
                </mxCell>
                <mxCell id="Jtuv1Z3wtPB-kP8Pw_JZ-162" value="" style="shape=parallelogram;perimeter=parallelogramPerimeter;whiteSpace=wrap;html=1;fixedSize=1;size=20;fillColor=#e1d5e7;strokeColor=#9673a6;" parent="1" vertex="1">
                    <mxGeometry x="590" y="490" width="60" height="10" as="geometry"/>
                </mxCell>
                <mxCell id="Jtuv1Z3wtPB-kP8Pw_JZ-163" value="" style="shape=parallelogram;perimeter=parallelogramPerimeter;whiteSpace=wrap;html=1;fixedSize=1;size=20;fillColor=#e1d5e7;strokeColor=#9673a6;" parent="1" vertex="1">
                    <mxGeometry x="610" y="480" width="60" height="10" as="geometry"/>
                </mxCell>
                <mxCell id="Jtuv1Z3wtPB-kP8Pw_JZ-164" value="" style="shape=parallelogram;perimeter=parallelogramPerimeter;whiteSpace=wrap;html=1;fixedSize=1;direction=south;size=10;flipV=1;strokeColor=#9673a6;fillColor=#D8C4E7;" parent="1" vertex="1">
                    <mxGeometry x="610" y="500" width="20" height="30" as="geometry"/>
                </mxCell>
                <mxCell id="Jtuv1Z3wtPB-kP8Pw_JZ-165" value="" style="shape=parallelogram;perimeter=parallelogramPerimeter;whiteSpace=wrap;html=1;fixedSize=1;direction=south;size=10;flipV=1;strokeColor=#9673a6;fillColor=#D8C4E7;" parent="1" vertex="1">
                    <mxGeometry x="630" y="490" width="20" height="30" as="geometry"/>
                </mxCell>
                <mxCell id="Jtuv1Z3wtPB-kP8Pw_JZ-166" value="" style="shape=parallelogram;perimeter=parallelogramPerimeter;whiteSpace=wrap;html=1;fixedSize=1;direction=south;size=10;flipV=1;strokeColor=#9673a6;fillColor=#D8C4E7;" parent="1" vertex="1">
                    <mxGeometry x="650" y="480" width="20" height="30" as="geometry"/>
                </mxCell>
                <mxCell id="Jtuv1Z3wtPB-kP8Pw_JZ-167" value="" style="shape=parallelogram;perimeter=parallelogramPerimeter;whiteSpace=wrap;html=1;fixedSize=1;size=20;fillColor=#e1d5e7;strokeColor=#9673a6;" parent="1" vertex="1">
                    <mxGeometry x="510" y="510" width="60" height="10" as="geometry"/>
                </mxCell>
                <mxCell id="Jtuv1Z3wtPB-kP8Pw_JZ-168" value="" style="rounded=0;whiteSpace=wrap;html=1;strokeColor=#9673a6;fillColor=#CFA0E6;" parent="1" vertex="1">
                    <mxGeometry x="510" y="520" width="40" height="20" as="geometry"/>
                </mxCell>
                <mxCell id="Jtuv1Z3wtPB-kP8Pw_JZ-169" value="" style="shape=parallelogram;perimeter=parallelogramPerimeter;whiteSpace=wrap;html=1;fixedSize=1;size=20;fillColor=#e1d5e7;strokeColor=#9673a6;" parent="1" vertex="1">
                    <mxGeometry x="530" y="500" width="60" height="10" as="geometry"/>
                </mxCell>
                <mxCell id="Jtuv1Z3wtPB-kP8Pw_JZ-170" value="" style="shape=parallelogram;perimeter=parallelogramPerimeter;whiteSpace=wrap;html=1;fixedSize=1;size=20;fillColor=#e1d5e7;strokeColor=#9673a6;" parent="1" vertex="1">
                    <mxGeometry x="550" y="490" width="60" height="10" as="geometry"/>
                </mxCell>
                <mxCell id="Jtuv1Z3wtPB-kP8Pw_JZ-171" value="" style="shape=parallelogram;perimeter=parallelogramPerimeter;whiteSpace=wrap;html=1;fixedSize=1;size=20;fillColor=#e1d5e7;strokeColor=#9673a6;" parent="1" vertex="1">
                    <mxGeometry x="570" y="480" width="60" height="10" as="geometry"/>
                </mxCell>
                <mxCell id="Jtuv1Z3wtPB-kP8Pw_JZ-172" value="" style="shape=parallelogram;perimeter=parallelogramPerimeter;whiteSpace=wrap;html=1;fixedSize=1;size=20;fillColor=#e1d5e7;strokeColor=#9673a6;" parent="1" vertex="1">
                    <mxGeometry x="470" y="510" width="60" height="10" as="geometry"/>
                </mxCell>
                <mxCell id="Jtuv1Z3wtPB-kP8Pw_JZ-173" value="" style="rounded=0;whiteSpace=wrap;html=1;strokeColor=#9673a6;fillColor=#CFA0E6;" parent="1" vertex="1">
                    <mxGeometry x="470" y="520" width="40" height="20" as="geometry"/>
                </mxCell>
                <mxCell id="Jtuv1Z3wtPB-kP8Pw_JZ-175" value="" style="shape=parallelogram;perimeter=parallelogramPerimeter;whiteSpace=wrap;html=1;fixedSize=1;size=20;fillColor=#e1d5e7;strokeColor=#9673a6;" parent="1" vertex="1">
                    <mxGeometry x="490" y="500" width="60" height="10" as="geometry"/>
                </mxCell>
                <mxCell id="Jtuv1Z3wtPB-kP8Pw_JZ-176" value="" style="shape=parallelogram;perimeter=parallelogramPerimeter;whiteSpace=wrap;html=1;fixedSize=1;size=20;fillColor=#e1d5e7;strokeColor=#9673a6;" parent="1" vertex="1">
                    <mxGeometry x="510" y="490" width="60" height="10" as="geometry"/>
                </mxCell>
                <mxCell id="Jtuv1Z3wtPB-kP8Pw_JZ-177" value="" style="shape=parallelogram;perimeter=parallelogramPerimeter;whiteSpace=wrap;html=1;fixedSize=1;size=20;fillColor=#e1d5e7;strokeColor=#9673a6;" parent="1" vertex="1">
                    <mxGeometry x="530" y="480" width="60" height="10" as="geometry"/>
                </mxCell>
                <mxCell id="Jtuv1Z3wtPB-kP8Pw_JZ-181" value="" style="shape=parallelogram;perimeter=parallelogramPerimeter;whiteSpace=wrap;html=1;fixedSize=1;size=20;fillColor=#e1d5e7;strokeColor=#9673a6;" parent="1" vertex="1">
                    <mxGeometry x="430" y="510" width="60" height="10" as="geometry"/>
                </mxCell>
                <mxCell id="Jtuv1Z3wtPB-kP8Pw_JZ-182" value="" style="rounded=0;whiteSpace=wrap;html=1;strokeColor=#9673a6;fillColor=#CFA0E6;" parent="1" vertex="1">
                    <mxGeometry x="430" y="520" width="40" height="20" as="geometry"/>
                </mxCell>
                <mxCell id="Jtuv1Z3wtPB-kP8Pw_JZ-183" value="" style="shape=parallelogram;perimeter=parallelogramPerimeter;whiteSpace=wrap;html=1;fixedSize=1;size=20;fillColor=#e1d5e7;strokeColor=#9673a6;" parent="1" vertex="1">
                    <mxGeometry x="450" y="500" width="60" height="10" as="geometry"/>
                </mxCell>
                <mxCell id="Jtuv1Z3wtPB-kP8Pw_JZ-184" value="" style="shape=parallelogram;perimeter=parallelogramPerimeter;whiteSpace=wrap;html=1;fixedSize=1;size=20;fillColor=#e1d5e7;strokeColor=#9673a6;" parent="1" vertex="1">
                    <mxGeometry x="470" y="490" width="60" height="10" as="geometry"/>
                </mxCell>
                <mxCell id="Jtuv1Z3wtPB-kP8Pw_JZ-185" value="" style="shape=parallelogram;perimeter=parallelogramPerimeter;whiteSpace=wrap;html=1;fixedSize=1;size=20;fillColor=#e1d5e7;strokeColor=#9673a6;" parent="1" vertex="1">
                    <mxGeometry x="490" y="480" width="60" height="10" as="geometry"/>
                </mxCell>
                <mxCell id="Jtuv1Z3wtPB-kP8Pw_JZ-186" value="" style="shape=parallelogram;perimeter=parallelogramPerimeter;whiteSpace=wrap;html=1;fixedSize=1;size=20;fillColor=#e1d5e7;strokeColor=#9673a6;" parent="1" vertex="1">
                    <mxGeometry x="390" y="510" width="60" height="10" as="geometry"/>
                </mxCell>
                <mxCell id="Jtuv1Z3wtPB-kP8Pw_JZ-187" value="" style="rounded=0;whiteSpace=wrap;html=1;strokeColor=#9673a6;fillColor=#CFA0E6;" parent="1" vertex="1">
                    <mxGeometry x="390" y="520" width="40" height="20" as="geometry"/>
                </mxCell>
                <mxCell id="Jtuv1Z3wtPB-kP8Pw_JZ-188" value="" style="shape=parallelogram;perimeter=parallelogramPerimeter;whiteSpace=wrap;html=1;fixedSize=1;size=20;fillColor=#e1d5e7;strokeColor=#9673a6;" parent="1" vertex="1">
                    <mxGeometry x="410" y="500" width="60" height="10" as="geometry"/>
                </mxCell>
                <mxCell id="Jtuv1Z3wtPB-kP8Pw_JZ-189" value="" style="shape=parallelogram;perimeter=parallelogramPerimeter;whiteSpace=wrap;html=1;fixedSize=1;size=20;fillColor=#e1d5e7;strokeColor=#9673a6;" parent="1" vertex="1">
                    <mxGeometry x="430" y="490" width="60" height="10" as="geometry"/>
                </mxCell>
                <mxCell id="Jtuv1Z3wtPB-kP8Pw_JZ-190" value="" style="shape=parallelogram;perimeter=parallelogramPerimeter;whiteSpace=wrap;html=1;fixedSize=1;size=20;fillColor=#e1d5e7;strokeColor=#9673a6;" parent="1" vertex="1">
                    <mxGeometry x="450" y="480" width="60" height="10" as="geometry"/>
                </mxCell>
                <mxCell id="Jtuv1Z3wtPB-kP8Pw_JZ-191" value="" style="shape=parallelogram;perimeter=parallelogramPerimeter;whiteSpace=wrap;html=1;fixedSize=1;size=20;fillColor=#e1d5e7;strokeColor=#9673a6;" parent="1" vertex="1">
                    <mxGeometry x="350" y="510" width="60" height="10" as="geometry"/>
                </mxCell>
                <mxCell id="Jtuv1Z3wtPB-kP8Pw_JZ-192" value="" style="rounded=0;whiteSpace=wrap;html=1;strokeColor=#9673a6;fillColor=#CFA0E6;" parent="1" vertex="1">
                    <mxGeometry x="350" y="520" width="40" height="20" as="geometry"/>
                </mxCell>
                <mxCell id="Jtuv1Z3wtPB-kP8Pw_JZ-193" value="" style="shape=parallelogram;perimeter=parallelogramPerimeter;whiteSpace=wrap;html=1;fixedSize=1;size=20;fillColor=#e1d5e7;strokeColor=#9673a6;" parent="1" vertex="1">
                    <mxGeometry x="370" y="500" width="60" height="10" as="geometry"/>
                </mxCell>
                <mxCell id="Jtuv1Z3wtPB-kP8Pw_JZ-194" value="" style="shape=parallelogram;perimeter=parallelogramPerimeter;whiteSpace=wrap;html=1;fixedSize=1;size=20;fillColor=#e1d5e7;strokeColor=#9673a6;" parent="1" vertex="1">
                    <mxGeometry x="390" y="490" width="60" height="10" as="geometry"/>
                </mxCell>
                <mxCell id="Jtuv1Z3wtPB-kP8Pw_JZ-195" value="" style="shape=parallelogram;perimeter=parallelogramPerimeter;whiteSpace=wrap;html=1;fixedSize=1;size=20;fillColor=#e1d5e7;strokeColor=#9673a6;" parent="1" vertex="1">
                    <mxGeometry x="410" y="480" width="60" height="10" as="geometry"/>
                </mxCell>
                <mxCell id="Jtuv1Z3wtPB-kP8Pw_JZ-9" value="" style="shape=parallelogram;perimeter=parallelogramPerimeter;whiteSpace=wrap;html=1;fixedSize=1;size=20;fillColor=#fff2cc;strokeColor=#d6b656;" parent="1" vertex="1">
                    <mxGeometry x="550" y="390" width="60" height="10" as="geometry"/>
                </mxCell>
                <mxCell id="Jtuv1Z3wtPB-kP8Pw_JZ-15" value="" style="rounded=0;whiteSpace=wrap;html=1;fillColor=#ffe6cc;strokeColor=#d79b00;" parent="1" vertex="1">
                    <mxGeometry x="550" y="400" width="40" height="20" as="geometry"/>
                </mxCell>
                <mxCell id="Jtuv1Z3wtPB-kP8Pw_JZ-72" value="" style="shape=parallelogram;perimeter=parallelogramPerimeter;whiteSpace=wrap;html=1;fixedSize=1;size=20;fillColor=#fff2cc;strokeColor=#d6b656;" parent="1" vertex="1">
                    <mxGeometry x="570" y="380" width="60" height="10" as="geometry"/>
                </mxCell>
                <mxCell id="Jtuv1Z3wtPB-kP8Pw_JZ-73" value="" style="shape=parallelogram;perimeter=parallelogramPerimeter;whiteSpace=wrap;html=1;fixedSize=1;size=20;fillColor=#fff2cc;strokeColor=#d6b656;" parent="1" vertex="1">
                    <mxGeometry x="590" y="370" width="60" height="10" as="geometry"/>
                </mxCell>
                <mxCell id="Jtuv1Z3wtPB-kP8Pw_JZ-74" value="" style="shape=parallelogram;perimeter=parallelogramPerimeter;whiteSpace=wrap;html=1;fixedSize=1;size=20;fillColor=#fff2cc;strokeColor=#d6b656;" parent="1" vertex="1">
                    <mxGeometry x="610" y="360" width="60" height="10" as="geometry"/>
                </mxCell>
                <mxCell id="Jtuv1Z3wtPB-kP8Pw_JZ-79" value="" style="shape=parallelogram;perimeter=parallelogramPerimeter;whiteSpace=wrap;html=1;fixedSize=1;size=20;fillColor=#fff2cc;strokeColor=#d6b656;" parent="1" vertex="1">
                    <mxGeometry x="510" y="390" width="60" height="10" as="geometry"/>
                </mxCell>
                <mxCell id="Jtuv1Z3wtPB-kP8Pw_JZ-80" value="" style="rounded=0;whiteSpace=wrap;html=1;fillColor=#ffe6cc;strokeColor=#d79b00;" parent="1" vertex="1">
                    <mxGeometry x="510" y="400" width="40" height="20" as="geometry"/>
                </mxCell>
                <mxCell id="Jtuv1Z3wtPB-kP8Pw_JZ-82" value="" style="shape=parallelogram;perimeter=parallelogramPerimeter;whiteSpace=wrap;html=1;fixedSize=1;size=20;fillColor=#fff2cc;strokeColor=#d6b656;" parent="1" vertex="1">
                    <mxGeometry x="530" y="380" width="60" height="10" as="geometry"/>
                </mxCell>
                <mxCell id="Jtuv1Z3wtPB-kP8Pw_JZ-83" value="" style="shape=parallelogram;perimeter=parallelogramPerimeter;whiteSpace=wrap;html=1;fixedSize=1;size=20;fillColor=#fff2cc;strokeColor=#d6b656;" parent="1" vertex="1">
                    <mxGeometry x="550" y="370" width="60" height="10" as="geometry"/>
                </mxCell>
                <mxCell id="Jtuv1Z3wtPB-kP8Pw_JZ-84" value="" style="shape=parallelogram;perimeter=parallelogramPerimeter;whiteSpace=wrap;html=1;fixedSize=1;size=20;fillColor=#fff2cc;strokeColor=#d6b656;" parent="1" vertex="1">
                    <mxGeometry x="570" y="360" width="60" height="10" as="geometry"/>
                </mxCell>
                <mxCell id="Jtuv1Z3wtPB-kP8Pw_JZ-88" value="" style="shape=parallelogram;perimeter=parallelogramPerimeter;whiteSpace=wrap;html=1;fixedSize=1;size=20;strokeColor=#d6b656;fillColor=#FFE599;" parent="1" vertex="1">
                    <mxGeometry x="350" y="390" width="60" height="10" as="geometry"/>
                </mxCell>
                <mxCell id="Jtuv1Z3wtPB-kP8Pw_JZ-89" value="" style="rounded=0;whiteSpace=wrap;html=1;strokeColor=#d6b656;fillColor=#FFDAA3;" parent="1" vertex="1">
                    <mxGeometry x="350" y="400" width="40" height="20" as="geometry"/>
                </mxCell>
                <mxCell id="Jtuv1Z3wtPB-kP8Pw_JZ-90" value="" style="shape=parallelogram;perimeter=parallelogramPerimeter;whiteSpace=wrap;html=1;fixedSize=1;size=20;strokeColor=#d6b656;fillColor=#FFE599;" parent="1" vertex="1">
                    <mxGeometry x="370" y="380" width="60" height="10" as="geometry"/>
                </mxCell>
                <mxCell id="Jtuv1Z3wtPB-kP8Pw_JZ-91" value="" style="shape=parallelogram;perimeter=parallelogramPerimeter;whiteSpace=wrap;html=1;fixedSize=1;size=20;strokeColor=#d6b656;fillColor=#FFE599;" parent="1" vertex="1">
                    <mxGeometry x="390" y="370" width="60" height="10" as="geometry"/>
                </mxCell>
                <mxCell id="Jtuv1Z3wtPB-kP8Pw_JZ-92" value="" style="shape=parallelogram;perimeter=parallelogramPerimeter;whiteSpace=wrap;html=1;fixedSize=1;size=20;strokeColor=#d6b656;fillColor=#FFE599;" parent="1" vertex="1">
                    <mxGeometry x="410" y="360" width="60" height="10" as="geometry"/>
                </mxCell>
                <mxCell id="Jtuv1Z3wtPB-kP8Pw_JZ-93" value="" style="shape=parallelogram;perimeter=parallelogramPerimeter;whiteSpace=wrap;html=1;fixedSize=1;size=20;strokeColor=#d6b656;fillColor=#FFE599;" parent="1" vertex="1">
                    <mxGeometry x="390" y="390" width="60" height="10" as="geometry"/>
                </mxCell>
                <mxCell id="Jtuv1Z3wtPB-kP8Pw_JZ-282" style="edgeStyle=orthogonalEdgeStyle;rounded=0;orthogonalLoop=1;jettySize=auto;html=1;exitX=0.5;exitY=1;exitDx=0;exitDy=0;shadow=0;endSize=7;strokeWidth=2;fillColor=#ffe6cc;strokeColor=#d79b00;entryX=0.875;entryY=0.5;entryDx=0;entryDy=0;entryPerimeter=0;endArrow=block;endFill=1;" parent="1" source="Jtuv1Z3wtPB-kP8Pw_JZ-94" target="Jtuv1Z3wtPB-kP8Pw_JZ-293" edge="1">
                    <mxGeometry relative="1" as="geometry">
                        <mxPoint x="600" y="315" as="targetPoint"/>
                        <Array as="points">
                            <mxPoint x="410" y="430"/>
                            <mxPoint x="690" y="430"/>
                            <mxPoint x="690" y="315"/>
                        </Array>
                    </mxGeometry>
                </mxCell>
                <mxCell id="Jtuv1Z3wtPB-kP8Pw_JZ-292" style="edgeStyle=orthogonalEdgeStyle;rounded=0;orthogonalLoop=1;jettySize=auto;html=1;exitX=0.5;exitY=1;exitDx=0;exitDy=0;entryX=0.25;entryY=1;entryDx=0;entryDy=0;shadow=0;endSize=1;strokeWidth=2;fillColor=#ffe6cc;strokeColor=#d79b00;" parent="1" source="Jtuv1Z3wtPB-kP8Pw_JZ-94" target="Jtuv1Z3wtPB-kP8Pw_JZ-290" edge="1">
                    <mxGeometry relative="1" as="geometry">
                        <Array as="points">
                            <mxPoint x="410" y="430"/>
                            <mxPoint x="524" y="430"/>
                        </Array>
                    </mxGeometry>
                </mxCell>
                <mxCell id="Jtuv1Z3wtPB-kP8Pw_JZ-94" value="" style="rounded=0;whiteSpace=wrap;html=1;strokeColor=#d6b656;fillColor=#FFDAA3;" parent="1" vertex="1">
                    <mxGeometry x="390" y="400" width="40" height="20" as="geometry"/>
                </mxCell>
                <mxCell id="Jtuv1Z3wtPB-kP8Pw_JZ-95" value="" style="shape=parallelogram;perimeter=parallelogramPerimeter;whiteSpace=wrap;html=1;fixedSize=1;size=20;strokeColor=#d6b656;fillColor=#FFE599;" parent="1" vertex="1">
                    <mxGeometry x="410" y="380" width="60" height="10" as="geometry"/>
                </mxCell>
                <mxCell id="Jtuv1Z3wtPB-kP8Pw_JZ-96" value="" style="shape=parallelogram;perimeter=parallelogramPerimeter;whiteSpace=wrap;html=1;fixedSize=1;size=20;strokeColor=#d6b656;fillColor=#FFE599;" parent="1" vertex="1">
                    <mxGeometry x="430" y="370" width="60" height="10" as="geometry"/>
                </mxCell>
                <mxCell id="Jtuv1Z3wtPB-kP8Pw_JZ-97" value="" style="shape=parallelogram;perimeter=parallelogramPerimeter;whiteSpace=wrap;html=1;fixedSize=1;size=20;strokeColor=#d6b656;fillColor=#FFE599;" parent="1" vertex="1">
                    <mxGeometry x="450" y="360" width="60" height="10" as="geometry"/>
                </mxCell>
                <mxCell id="Jtuv1Z3wtPB-kP8Pw_JZ-98" value="" style="shape=parallelogram;perimeter=parallelogramPerimeter;whiteSpace=wrap;html=1;fixedSize=1;size=20;strokeColor=#d6b656;fillColor=#FFE599;" parent="1" vertex="1">
                    <mxGeometry x="270" y="390" width="60" height="10" as="geometry"/>
                </mxCell>
                <mxCell id="Jtuv1Z3wtPB-kP8Pw_JZ-99" value="" style="rounded=0;whiteSpace=wrap;html=1;strokeColor=#d6b656;fillColor=#FFDAA3;" parent="1" vertex="1">
                    <mxGeometry x="270" y="400" width="40" height="20" as="geometry"/>
                </mxCell>
                <mxCell id="Jtuv1Z3wtPB-kP8Pw_JZ-100" value="" style="shape=parallelogram;perimeter=parallelogramPerimeter;whiteSpace=wrap;html=1;fixedSize=1;size=20;strokeColor=#d6b656;fillColor=#FFE599;" parent="1" vertex="1">
                    <mxGeometry x="290" y="380" width="60" height="10" as="geometry"/>
                </mxCell>
                <mxCell id="Jtuv1Z3wtPB-kP8Pw_JZ-101" value="" style="shape=parallelogram;perimeter=parallelogramPerimeter;whiteSpace=wrap;html=1;fixedSize=1;size=20;strokeColor=#d6b656;fillColor=#FFE599;" parent="1" vertex="1">
                    <mxGeometry x="310" y="370" width="60" height="10" as="geometry"/>
                </mxCell>
                <mxCell id="Jtuv1Z3wtPB-kP8Pw_JZ-102" value="" style="shape=parallelogram;perimeter=parallelogramPerimeter;whiteSpace=wrap;html=1;fixedSize=1;size=20;strokeColor=#d6b656;fillColor=#FFE599;" parent="1" vertex="1">
                    <mxGeometry x="330" y="360" width="60" height="10" as="geometry"/>
                </mxCell>
                <mxCell id="Jtuv1Z3wtPB-kP8Pw_JZ-103" value="" style="shape=parallelogram;perimeter=parallelogramPerimeter;whiteSpace=wrap;html=1;fixedSize=1;size=20;strokeColor=#d6b656;fillColor=#FFE599;" parent="1" vertex="1">
                    <mxGeometry x="310" y="390" width="60" height="10" as="geometry"/>
                </mxCell>
                <mxCell id="Jtuv1Z3wtPB-kP8Pw_JZ-104" value="" style="rounded=0;whiteSpace=wrap;html=1;strokeColor=#d6b656;fillColor=#FFDAA3;" parent="1" vertex="1">
                    <mxGeometry x="310" y="400" width="40" height="20" as="geometry"/>
                </mxCell>
                <mxCell id="Jtuv1Z3wtPB-kP8Pw_JZ-105" value="" style="shape=parallelogram;perimeter=parallelogramPerimeter;whiteSpace=wrap;html=1;fixedSize=1;size=20;strokeColor=#d6b656;fillColor=#FFE599;" parent="1" vertex="1">
                    <mxGeometry x="330" y="380" width="60" height="10" as="geometry"/>
                </mxCell>
                <mxCell id="Jtuv1Z3wtPB-kP8Pw_JZ-106" value="" style="shape=parallelogram;perimeter=parallelogramPerimeter;whiteSpace=wrap;html=1;fixedSize=1;size=20;strokeColor=#d6b656;fillColor=#FFE599;" parent="1" vertex="1">
                    <mxGeometry x="350" y="370" width="60" height="10" as="geometry"/>
                </mxCell>
                <mxCell id="Jtuv1Z3wtPB-kP8Pw_JZ-107" value="" style="shape=parallelogram;perimeter=parallelogramPerimeter;whiteSpace=wrap;html=1;fixedSize=1;size=20;strokeColor=#d6b656;fillColor=#FFE599;" parent="1" vertex="1">
                    <mxGeometry x="370" y="360" width="60" height="10" as="geometry"/>
                </mxCell>
                <mxCell id="Jtuv1Z3wtPB-kP8Pw_JZ-108" value="" style="shape=parallelogram;perimeter=parallelogramPerimeter;whiteSpace=wrap;html=1;fixedSize=1;size=20;fillColor=#fff2cc;strokeColor=#d6b656;" parent="1" vertex="1">
                    <mxGeometry x="190" y="390" width="60" height="10" as="geometry"/>
                </mxCell>
                <mxCell id="Jtuv1Z3wtPB-kP8Pw_JZ-109" value="" style="rounded=0;whiteSpace=wrap;html=1;fillColor=#ffe6cc;strokeColor=#d79b00;" parent="1" vertex="1">
                    <mxGeometry x="190" y="400" width="40" height="20" as="geometry"/>
                </mxCell>
                <mxCell id="Jtuv1Z3wtPB-kP8Pw_JZ-110" value="" style="shape=parallelogram;perimeter=parallelogramPerimeter;whiteSpace=wrap;html=1;fixedSize=1;size=20;fillColor=#fff2cc;strokeColor=#d6b656;" parent="1" vertex="1">
                    <mxGeometry x="210" y="380" width="60" height="10" as="geometry"/>
                </mxCell>
                <mxCell id="Jtuv1Z3wtPB-kP8Pw_JZ-111" value="" style="shape=parallelogram;perimeter=parallelogramPerimeter;whiteSpace=wrap;html=1;fixedSize=1;size=20;fillColor=#fff2cc;strokeColor=#d6b656;" parent="1" vertex="1">
                    <mxGeometry x="230" y="370" width="60" height="10" as="geometry"/>
                </mxCell>
                <mxCell id="Jtuv1Z3wtPB-kP8Pw_JZ-112" value="" style="shape=parallelogram;perimeter=parallelogramPerimeter;whiteSpace=wrap;html=1;fixedSize=1;size=20;fillColor=#fff2cc;strokeColor=#d6b656;" parent="1" vertex="1">
                    <mxGeometry x="250" y="360" width="60" height="10" as="geometry"/>
                </mxCell>
                <mxCell id="Jtuv1Z3wtPB-kP8Pw_JZ-113" value="" style="shape=parallelogram;perimeter=parallelogramPerimeter;whiteSpace=wrap;html=1;fixedSize=1;size=20;fillColor=#fff2cc;strokeColor=#d6b656;" parent="1" vertex="1">
                    <mxGeometry x="230" y="390" width="60" height="10" as="geometry"/>
                </mxCell>
                <mxCell id="Jtuv1Z3wtPB-kP8Pw_JZ-114" value="" style="rounded=0;whiteSpace=wrap;html=1;fillColor=#ffe6cc;strokeColor=#d79b00;" parent="1" vertex="1">
                    <mxGeometry x="230" y="400" width="40" height="20" as="geometry"/>
                </mxCell>
                <mxCell id="Jtuv1Z3wtPB-kP8Pw_JZ-115" value="" style="shape=parallelogram;perimeter=parallelogramPerimeter;whiteSpace=wrap;html=1;fixedSize=1;size=20;fillColor=#fff2cc;strokeColor=#d6b656;" parent="1" vertex="1">
                    <mxGeometry x="250" y="380" width="60" height="10" as="geometry"/>
                </mxCell>
                <mxCell id="Jtuv1Z3wtPB-kP8Pw_JZ-116" value="" style="shape=parallelogram;perimeter=parallelogramPerimeter;whiteSpace=wrap;html=1;fixedSize=1;size=20;fillColor=#fff2cc;strokeColor=#d6b656;" parent="1" vertex="1">
                    <mxGeometry x="270" y="370" width="60" height="10" as="geometry"/>
                </mxCell>
                <mxCell id="Jtuv1Z3wtPB-kP8Pw_JZ-117" value="" style="shape=parallelogram;perimeter=parallelogramPerimeter;whiteSpace=wrap;html=1;fixedSize=1;size=20;fillColor=#fff2cc;strokeColor=#d6b656;" parent="1" vertex="1">
                    <mxGeometry x="290" y="360" width="60" height="10" as="geometry"/>
                </mxCell>
                <mxCell id="Jtuv1Z3wtPB-kP8Pw_JZ-118" value="" style="shape=parallelogram;perimeter=parallelogramPerimeter;whiteSpace=wrap;html=1;fixedSize=1;size=20;fillColor=#fff2cc;strokeColor=#d6b656;" parent="1" vertex="1">
                    <mxGeometry x="110" y="390" width="60" height="10" as="geometry"/>
                </mxCell>
                <mxCell id="Jtuv1Z3wtPB-kP8Pw_JZ-119" value="" style="rounded=0;whiteSpace=wrap;html=1;fillColor=#ffe6cc;strokeColor=#d79b00;" parent="1" vertex="1">
                    <mxGeometry x="110" y="400" width="40" height="20" as="geometry"/>
                </mxCell>
                <mxCell id="Jtuv1Z3wtPB-kP8Pw_JZ-120" value="" style="shape=parallelogram;perimeter=parallelogramPerimeter;whiteSpace=wrap;html=1;fixedSize=1;size=20;fillColor=#fff2cc;strokeColor=#d6b656;" parent="1" vertex="1">
                    <mxGeometry x="130" y="380" width="60" height="10" as="geometry"/>
                </mxCell>
                <mxCell id="Jtuv1Z3wtPB-kP8Pw_JZ-121" value="" style="shape=parallelogram;perimeter=parallelogramPerimeter;whiteSpace=wrap;html=1;fixedSize=1;size=20;fillColor=#fff2cc;strokeColor=#d6b656;" parent="1" vertex="1">
                    <mxGeometry x="150" y="370" width="60" height="10" as="geometry"/>
                </mxCell>
                <mxCell id="Jtuv1Z3wtPB-kP8Pw_JZ-122" value="" style="shape=parallelogram;perimeter=parallelogramPerimeter;whiteSpace=wrap;html=1;fixedSize=1;size=20;fillColor=#fff2cc;strokeColor=#d6b656;" parent="1" vertex="1">
                    <mxGeometry x="170" y="360" width="60" height="10" as="geometry"/>
                </mxCell>
                <mxCell id="Jtuv1Z3wtPB-kP8Pw_JZ-123" value="" style="shape=parallelogram;perimeter=parallelogramPerimeter;whiteSpace=wrap;html=1;fixedSize=1;size=20;fillColor=#fff2cc;strokeColor=#d6b656;" parent="1" vertex="1">
                    <mxGeometry x="150" y="390" width="60" height="10" as="geometry"/>
                </mxCell>
                <mxCell id="Jtuv1Z3wtPB-kP8Pw_JZ-124" value="" style="rounded=0;whiteSpace=wrap;html=1;fillColor=#ffe6cc;strokeColor=#d79b00;" parent="1" vertex="1">
                    <mxGeometry x="150" y="400" width="40" height="20" as="geometry"/>
                </mxCell>
                <mxCell id="Jtuv1Z3wtPB-kP8Pw_JZ-125" value="" style="shape=parallelogram;perimeter=parallelogramPerimeter;whiteSpace=wrap;html=1;fixedSize=1;size=20;fillColor=#fff2cc;strokeColor=#d6b656;" parent="1" vertex="1">
                    <mxGeometry x="170" y="380" width="60" height="10" as="geometry"/>
                </mxCell>
                <mxCell id="Jtuv1Z3wtPB-kP8Pw_JZ-126" value="" style="shape=parallelogram;perimeter=parallelogramPerimeter;whiteSpace=wrap;html=1;fixedSize=1;size=20;fillColor=#fff2cc;strokeColor=#d6b656;" parent="1" vertex="1">
                    <mxGeometry x="190" y="370" width="60" height="10" as="geometry"/>
                </mxCell>
                <mxCell id="Jtuv1Z3wtPB-kP8Pw_JZ-127" value="" style="shape=parallelogram;perimeter=parallelogramPerimeter;whiteSpace=wrap;html=1;fixedSize=1;size=20;fillColor=#fff2cc;strokeColor=#d6b656;" parent="1" vertex="1">
                    <mxGeometry x="210" y="360" width="60" height="10" as="geometry"/>
                </mxCell>
                <mxCell id="Jtuv1Z3wtPB-kP8Pw_JZ-132" value="" style="shape=parallelogram;perimeter=parallelogramPerimeter;whiteSpace=wrap;html=1;fixedSize=1;direction=south;size=10;flipV=1;strokeColor=#d6b656;fillColor=#FFE599;" parent="1" vertex="1">
                    <mxGeometry x="650" y="360" width="20" height="30" as="geometry"/>
                </mxCell>
                <mxCell id="Jtuv1Z3wtPB-kP8Pw_JZ-133" value="" style="shape=parallelogram;perimeter=parallelogramPerimeter;whiteSpace=wrap;html=1;fixedSize=1;direction=south;size=10;flipV=1;strokeColor=#d6b656;fillColor=#FFE599;" parent="1" vertex="1">
                    <mxGeometry x="630" y="370" width="20" height="30" as="geometry"/>
                </mxCell>
                <mxCell id="Jtuv1Z3wtPB-kP8Pw_JZ-134" value="" style="shape=parallelogram;perimeter=parallelogramPerimeter;whiteSpace=wrap;html=1;fixedSize=1;direction=south;size=10;flipV=1;strokeColor=#d6b656;fillColor=#FFE599;" parent="1" vertex="1">
                    <mxGeometry x="610" y="380" width="20" height="30" as="geometry"/>
                </mxCell>
                <mxCell id="Jtuv1Z3wtPB-kP8Pw_JZ-135" value="" style="shape=parallelogram;perimeter=parallelogramPerimeter;whiteSpace=wrap;html=1;fixedSize=1;direction=south;size=10;flipV=1;strokeColor=#d6b656;fillColor=#FFE599;" parent="1" vertex="1">
                    <mxGeometry x="590" y="390" width="20" height="30" as="geometry"/>
                </mxCell>
                <mxCell id="Jtuv1Z3wtPB-kP8Pw_JZ-146" value="" style="shape=parallelogram;perimeter=parallelogramPerimeter;whiteSpace=wrap;html=1;fixedSize=1;size=20;fillColor=#fff2cc;strokeColor=#d6b656;" parent="1" vertex="1">
                    <mxGeometry x="470" y="390" width="60" height="10" as="geometry"/>
                </mxCell>
                <mxCell id="Jtuv1Z3wtPB-kP8Pw_JZ-147" value="" style="rounded=0;whiteSpace=wrap;html=1;fillColor=#ffe6cc;strokeColor=#d79b00;" parent="1" vertex="1">
                    <mxGeometry x="470" y="400" width="40" height="20" as="geometry"/>
                </mxCell>
                <mxCell id="Jtuv1Z3wtPB-kP8Pw_JZ-148" value="" style="shape=parallelogram;perimeter=parallelogramPerimeter;whiteSpace=wrap;html=1;fixedSize=1;size=20;fillColor=#fff2cc;strokeColor=#d6b656;" parent="1" vertex="1">
                    <mxGeometry x="490" y="380" width="60" height="10" as="geometry"/>
                </mxCell>
                <mxCell id="Jtuv1Z3wtPB-kP8Pw_JZ-149" value="" style="shape=parallelogram;perimeter=parallelogramPerimeter;whiteSpace=wrap;html=1;fixedSize=1;size=20;fillColor=#fff2cc;strokeColor=#d6b656;" parent="1" vertex="1">
                    <mxGeometry x="510" y="370" width="60" height="10" as="geometry"/>
                </mxCell>
                <mxCell id="Jtuv1Z3wtPB-kP8Pw_JZ-150" value="" style="shape=parallelogram;perimeter=parallelogramPerimeter;whiteSpace=wrap;html=1;fixedSize=1;size=20;fillColor=#fff2cc;strokeColor=#d6b656;" parent="1" vertex="1">
                    <mxGeometry x="530" y="360" width="60" height="10" as="geometry"/>
                </mxCell>
                <mxCell id="Jtuv1Z3wtPB-kP8Pw_JZ-151" value="" style="shape=parallelogram;perimeter=parallelogramPerimeter;whiteSpace=wrap;html=1;fixedSize=1;size=20;fillColor=#fff2cc;strokeColor=#d6b656;" parent="1" vertex="1">
                    <mxGeometry x="430" y="390" width="60" height="10" as="geometry"/>
                </mxCell>
                <mxCell id="Jtuv1Z3wtPB-kP8Pw_JZ-152" value="" style="rounded=0;whiteSpace=wrap;html=1;fillColor=#ffe6cc;strokeColor=#d79b00;" parent="1" vertex="1">
                    <mxGeometry x="430" y="400" width="40" height="20" as="geometry"/>
                </mxCell>
                <mxCell id="Jtuv1Z3wtPB-kP8Pw_JZ-153" value="" style="shape=parallelogram;perimeter=parallelogramPerimeter;whiteSpace=wrap;html=1;fixedSize=1;size=20;fillColor=#fff2cc;strokeColor=#d6b656;" parent="1" vertex="1">
                    <mxGeometry x="450" y="380" width="60" height="10" as="geometry"/>
                </mxCell>
                <mxCell id="Jtuv1Z3wtPB-kP8Pw_JZ-154" value="" style="shape=parallelogram;perimeter=parallelogramPerimeter;whiteSpace=wrap;html=1;fixedSize=1;size=20;fillColor=#fff2cc;strokeColor=#d6b656;" parent="1" vertex="1">
                    <mxGeometry x="470" y="370" width="60" height="10" as="geometry"/>
                </mxCell>
                <mxCell id="Jtuv1Z3wtPB-kP8Pw_JZ-155" value="" style="shape=parallelogram;perimeter=parallelogramPerimeter;whiteSpace=wrap;html=1;fixedSize=1;size=20;fillColor=#fff2cc;strokeColor=#d6b656;" parent="1" vertex="1">
                    <mxGeometry x="490" y="360" width="60" height="10" as="geometry"/>
                </mxCell>
                <mxCell id="Jtuv1Z3wtPB-kP8Pw_JZ-156" value="Xoodoo State" style="text;html=1;align=center;verticalAlign=middle;whiteSpace=wrap;rounded=1;shadow=0;fillColor=#f5f5f5;strokeColor=#666666;fontColor=#333333;arcSize=50;" parent="1" vertex="1">
                    <mxGeometry x="30" y="370" width="90" height="20" as="geometry"/>
                </mxCell>
                <mxCell id="Jtuv1Z3wtPB-kP8Pw_JZ-196" value="" style="shape=parallelogram;perimeter=parallelogramPerimeter;whiteSpace=wrap;html=1;fixedSize=1;size=20;fillColor=#dae8fc;strokeColor=#6c8ebf;" parent="1" vertex="1">
                    <mxGeometry x="270" y="230" width="60" height="10" as="geometry"/>
                </mxCell>
                <mxCell id="Jtuv1Z3wtPB-kP8Pw_JZ-197" value="" style="rounded=0;whiteSpace=wrap;html=1;strokeColor=#6c8ebf;fillColor=#8FBDFF;" parent="1" vertex="1">
                    <mxGeometry x="270" y="240" width="40" height="20" as="geometry"/>
                </mxCell>
                <mxCell id="Jtuv1Z3wtPB-kP8Pw_JZ-198" value="" style="shape=parallelogram;perimeter=parallelogramPerimeter;whiteSpace=wrap;html=1;fixedSize=1;size=20;fillColor=#dae8fc;strokeColor=#6c8ebf;" parent="1" vertex="1">
                    <mxGeometry x="290" y="220" width="60" height="10" as="geometry"/>
                </mxCell>
                <mxCell id="Jtuv1Z3wtPB-kP8Pw_JZ-199" value="" style="shape=parallelogram;perimeter=parallelogramPerimeter;whiteSpace=wrap;html=1;fixedSize=1;size=20;fillColor=#dae8fc;strokeColor=#6c8ebf;" parent="1" vertex="1">
                    <mxGeometry x="310" y="210" width="60" height="10" as="geometry"/>
                </mxCell>
                <mxCell id="Jtuv1Z3wtPB-kP8Pw_JZ-200" value="" style="shape=parallelogram;perimeter=parallelogramPerimeter;whiteSpace=wrap;html=1;fixedSize=1;size=20;fillColor=#dae8fc;strokeColor=#6c8ebf;" parent="1" vertex="1">
                    <mxGeometry x="330" y="200" width="60" height="10" as="geometry"/>
                </mxCell>
                <mxCell id="Jtuv1Z3wtPB-kP8Pw_JZ-201" value="" style="shape=parallelogram;perimeter=parallelogramPerimeter;whiteSpace=wrap;html=1;fixedSize=1;size=20;fillColor=#dae8fc;strokeColor=#6c8ebf;" parent="1" vertex="1">
                    <mxGeometry x="230" y="230" width="60" height="10" as="geometry"/>
                </mxCell>
                <mxCell id="Jtuv1Z3wtPB-kP8Pw_JZ-202" value="" style="rounded=0;whiteSpace=wrap;html=1;strokeColor=#6c8ebf;fillColor=#8FBDFF;" parent="1" vertex="1">
                    <mxGeometry x="230" y="240" width="40" height="20" as="geometry"/>
                </mxCell>
                <mxCell id="Jtuv1Z3wtPB-kP8Pw_JZ-203" value="" style="shape=parallelogram;perimeter=parallelogramPerimeter;whiteSpace=wrap;html=1;fixedSize=1;size=20;fillColor=#dae8fc;strokeColor=#6c8ebf;" parent="1" vertex="1">
                    <mxGeometry x="250" y="220" width="60" height="10" as="geometry"/>
                </mxCell>
                <mxCell id="Jtuv1Z3wtPB-kP8Pw_JZ-204" value="" style="shape=parallelogram;perimeter=parallelogramPerimeter;whiteSpace=wrap;html=1;fixedSize=1;size=20;fillColor=#dae8fc;strokeColor=#6c8ebf;" parent="1" vertex="1">
                    <mxGeometry x="270" y="210" width="60" height="10" as="geometry"/>
                </mxCell>
                <mxCell id="Jtuv1Z3wtPB-kP8Pw_JZ-205" value="" style="shape=parallelogram;perimeter=parallelogramPerimeter;whiteSpace=wrap;html=1;fixedSize=1;size=20;fillColor=#dae8fc;strokeColor=#6c8ebf;" parent="1" vertex="1">
                    <mxGeometry x="290" y="200" width="60" height="10" as="geometry"/>
                </mxCell>
                <mxCell id="Jtuv1Z3wtPB-kP8Pw_JZ-212" value="" style="shape=parallelogram;perimeter=parallelogramPerimeter;whiteSpace=wrap;html=1;fixedSize=1;size=20;fillColor=#dae8fc;strokeColor=#6c8ebf;" parent="1" vertex="1">
                    <mxGeometry x="550" y="230" width="60" height="10" as="geometry"/>
                </mxCell>
                <mxCell id="Jtuv1Z3wtPB-kP8Pw_JZ-214" value="" style="shape=parallelogram;perimeter=parallelogramPerimeter;whiteSpace=wrap;html=1;fixedSize=1;size=20;fillColor=#dae8fc;strokeColor=#6c8ebf;" parent="1" vertex="1">
                    <mxGeometry x="570" y="220" width="60" height="10" as="geometry"/>
                </mxCell>
                <mxCell id="Jtuv1Z3wtPB-kP8Pw_JZ-215" value="" style="shape=parallelogram;perimeter=parallelogramPerimeter;whiteSpace=wrap;html=1;fixedSize=1;size=20;fillColor=#dae8fc;strokeColor=#6c8ebf;" parent="1" vertex="1">
                    <mxGeometry x="590" y="210" width="60" height="10" as="geometry"/>
                </mxCell>
                <mxCell id="Jtuv1Z3wtPB-kP8Pw_JZ-216" value="" style="shape=parallelogram;perimeter=parallelogramPerimeter;whiteSpace=wrap;html=1;fixedSize=1;size=20;fillColor=#dae8fc;strokeColor=#6c8ebf;" parent="1" vertex="1">
                    <mxGeometry x="610" y="200" width="60" height="10" as="geometry"/>
                </mxCell>
                <mxCell id="Jtuv1Z3wtPB-kP8Pw_JZ-217" value="" style="shape=parallelogram;perimeter=parallelogramPerimeter;whiteSpace=wrap;html=1;fixedSize=1;size=20;fillColor=#dae8fc;strokeColor=#6c8ebf;" parent="1" vertex="1">
                    <mxGeometry x="510" y="230" width="60" height="10" as="geometry"/>
                </mxCell>
                <mxCell id="Jtuv1Z3wtPB-kP8Pw_JZ-219" value="" style="shape=parallelogram;perimeter=parallelogramPerimeter;whiteSpace=wrap;html=1;fixedSize=1;size=20;fillColor=#dae8fc;strokeColor=#6c8ebf;" parent="1" vertex="1">
                    <mxGeometry x="530" y="220" width="60" height="10" as="geometry"/>
                </mxCell>
                <mxCell id="Jtuv1Z3wtPB-kP8Pw_JZ-220" value="" style="shape=parallelogram;perimeter=parallelogramPerimeter;whiteSpace=wrap;html=1;fixedSize=1;size=20;fillColor=#dae8fc;strokeColor=#6c8ebf;" parent="1" vertex="1">
                    <mxGeometry x="550" y="210" width="60" height="10" as="geometry"/>
                </mxCell>
                <mxCell id="Jtuv1Z3wtPB-kP8Pw_JZ-221" value="" style="shape=parallelogram;perimeter=parallelogramPerimeter;whiteSpace=wrap;html=1;fixedSize=1;size=20;fillColor=#dae8fc;strokeColor=#6c8ebf;" parent="1" vertex="1">
                    <mxGeometry x="570" y="200" width="60" height="10" as="geometry"/>
                </mxCell>
                <mxCell id="Jtuv1Z3wtPB-kP8Pw_JZ-224" value="" style="shape=parallelogram;perimeter=parallelogramPerimeter;whiteSpace=wrap;html=1;fixedSize=1;size=20;fillColor=#dae8fc;strokeColor=#6c8ebf;" parent="1" vertex="1">
                    <mxGeometry x="390" y="230" width="60" height="10" as="geometry"/>
                </mxCell>
                <mxCell id="Jtuv1Z3wtPB-kP8Pw_JZ-226" value="" style="shape=parallelogram;perimeter=parallelogramPerimeter;whiteSpace=wrap;html=1;fixedSize=1;size=20;fillColor=#dae8fc;strokeColor=#6c8ebf;" parent="1" vertex="1">
                    <mxGeometry x="410" y="220" width="60" height="10" as="geometry"/>
                </mxCell>
                <mxCell id="Jtuv1Z3wtPB-kP8Pw_JZ-227" value="" style="shape=parallelogram;perimeter=parallelogramPerimeter;whiteSpace=wrap;html=1;fixedSize=1;size=20;fillColor=#dae8fc;strokeColor=#6c8ebf;" parent="1" vertex="1">
                    <mxGeometry x="430" y="210" width="60" height="10" as="geometry"/>
                </mxCell>
                <mxCell id="Jtuv1Z3wtPB-kP8Pw_JZ-228" value="" style="shape=parallelogram;perimeter=parallelogramPerimeter;whiteSpace=wrap;html=1;fixedSize=1;size=20;fillColor=#dae8fc;strokeColor=#6c8ebf;" parent="1" vertex="1">
                    <mxGeometry x="450" y="200" width="60" height="10" as="geometry"/>
                </mxCell>
                <mxCell id="Jtuv1Z3wtPB-kP8Pw_JZ-229" value="" style="shape=parallelogram;perimeter=parallelogramPerimeter;whiteSpace=wrap;html=1;fixedSize=1;direction=south;size=10;flipV=1;strokeColor=#6c8ebf;fillColor=#C9D0F0;" parent="1" vertex="1">
                    <mxGeometry x="650" y="200" width="20" height="30" as="geometry"/>
                </mxCell>
                <mxCell id="Jtuv1Z3wtPB-kP8Pw_JZ-230" value="" style="shape=parallelogram;perimeter=parallelogramPerimeter;whiteSpace=wrap;html=1;fixedSize=1;direction=south;size=10;flipV=1;strokeColor=#6c8ebf;fillColor=#C9D0F0;" parent="1" vertex="1">
                    <mxGeometry x="630" y="210" width="20" height="30" as="geometry"/>
                </mxCell>
                <mxCell id="Jtuv1Z3wtPB-kP8Pw_JZ-231" value="" style="shape=parallelogram;perimeter=parallelogramPerimeter;whiteSpace=wrap;html=1;fixedSize=1;direction=south;size=10;flipV=1;strokeColor=#6c8ebf;fillColor=#C9D0F0;" parent="1" vertex="1">
                    <mxGeometry x="610" y="220" width="20" height="30" as="geometry"/>
                </mxCell>
                <mxCell id="Jtuv1Z3wtPB-kP8Pw_JZ-232" value="" style="shape=parallelogram;perimeter=parallelogramPerimeter;whiteSpace=wrap;html=1;fixedSize=1;direction=south;size=10;flipV=1;strokeColor=#6c8ebf;fillColor=#C9D0F0;" parent="1" vertex="1">
                    <mxGeometry x="590" y="230" width="20" height="30" as="geometry"/>
                </mxCell>
                <mxCell id="Jtuv1Z3wtPB-kP8Pw_JZ-233" value="" style="shape=parallelogram;perimeter=parallelogramPerimeter;whiteSpace=wrap;html=1;fixedSize=1;size=20;fillColor=#dae8fc;strokeColor=#6c8ebf;" parent="1" vertex="1">
                    <mxGeometry x="470" y="230" width="60" height="10" as="geometry"/>
                </mxCell>
                <mxCell id="Jtuv1Z3wtPB-kP8Pw_JZ-235" value="" style="shape=parallelogram;perimeter=parallelogramPerimeter;whiteSpace=wrap;html=1;fixedSize=1;size=20;fillColor=#dae8fc;strokeColor=#6c8ebf;" parent="1" vertex="1">
                    <mxGeometry x="490" y="220" width="60" height="10" as="geometry"/>
                </mxCell>
                <mxCell id="Jtuv1Z3wtPB-kP8Pw_JZ-236" value="" style="shape=parallelogram;perimeter=parallelogramPerimeter;whiteSpace=wrap;html=1;fixedSize=1;size=20;fillColor=#dae8fc;strokeColor=#6c8ebf;" parent="1" vertex="1">
                    <mxGeometry x="510" y="210" width="60" height="10" as="geometry"/>
                </mxCell>
                <mxCell id="Jtuv1Z3wtPB-kP8Pw_JZ-237" value="" style="shape=parallelogram;perimeter=parallelogramPerimeter;whiteSpace=wrap;html=1;fixedSize=1;size=20;fillColor=#dae8fc;strokeColor=#6c8ebf;" parent="1" vertex="1">
                    <mxGeometry x="530" y="200" width="60" height="10" as="geometry"/>
                </mxCell>
                <mxCell id="Jtuv1Z3wtPB-kP8Pw_JZ-238" value="" style="shape=parallelogram;perimeter=parallelogramPerimeter;whiteSpace=wrap;html=1;fixedSize=1;size=20;fillColor=#dae8fc;strokeColor=#6c8ebf;" parent="1" vertex="1">
                    <mxGeometry x="430" y="230" width="60" height="10" as="geometry"/>
                </mxCell>
                <mxCell id="Jtuv1Z3wtPB-kP8Pw_JZ-240" value="" style="shape=parallelogram;perimeter=parallelogramPerimeter;whiteSpace=wrap;html=1;fixedSize=1;size=20;fillColor=#dae8fc;strokeColor=#6c8ebf;" parent="1" vertex="1">
                    <mxGeometry x="450" y="220" width="60" height="10" as="geometry"/>
                </mxCell>
                <mxCell id="Jtuv1Z3wtPB-kP8Pw_JZ-241" value="" style="shape=parallelogram;perimeter=parallelogramPerimeter;whiteSpace=wrap;html=1;fixedSize=1;size=20;fillColor=#dae8fc;strokeColor=#6c8ebf;" parent="1" vertex="1">
                    <mxGeometry x="470" y="210" width="60" height="10" as="geometry"/>
                </mxCell>
                <mxCell id="Jtuv1Z3wtPB-kP8Pw_JZ-242" value="" style="shape=parallelogram;perimeter=parallelogramPerimeter;whiteSpace=wrap;html=1;fixedSize=1;size=20;fillColor=#dae8fc;strokeColor=#6c8ebf;" parent="1" vertex="1">
                    <mxGeometry x="490" y="200" width="60" height="10" as="geometry"/>
                </mxCell>
                <mxCell id="Jtuv1Z3wtPB-kP8Pw_JZ-244" value="" style="rounded=0;whiteSpace=wrap;html=1;strokeColor=#6c8ebf;fillColor=#8FBDFF;" parent="1" vertex="1">
                    <mxGeometry x="390" y="240" width="40" height="20" as="geometry"/>
                </mxCell>
                <mxCell id="Jtuv1Z3wtPB-kP8Pw_JZ-245" value="" style="rounded=0;whiteSpace=wrap;html=1;strokeColor=#6c8ebf;fillColor=#8FBDFF;" parent="1" vertex="1">
                    <mxGeometry x="430" y="240" width="40" height="20" as="geometry"/>
                </mxCell>
                <mxCell id="Jtuv1Z3wtPB-kP8Pw_JZ-246" value="" style="rounded=0;whiteSpace=wrap;html=1;strokeColor=#6c8ebf;fillColor=#8FBDFF;" parent="1" vertex="1">
                    <mxGeometry x="550" y="240" width="40" height="20" as="geometry"/>
                </mxCell>
                <mxCell id="Jtuv1Z3wtPB-kP8Pw_JZ-247" value="" style="rounded=0;whiteSpace=wrap;html=1;strokeColor=#6c8ebf;fillColor=#8FBDFF;" parent="1" vertex="1">
                    <mxGeometry x="510" y="240" width="40" height="20" as="geometry"/>
                </mxCell>
                <mxCell id="Jtuv1Z3wtPB-kP8Pw_JZ-248" value="" style="rounded=0;whiteSpace=wrap;html=1;strokeColor=#6c8ebf;fillColor=#8FBDFF;" parent="1" vertex="1">
                    <mxGeometry x="470" y="240" width="40" height="20" as="geometry"/>
                </mxCell>
                <mxCell id="Jtuv1Z3wtPB-kP8Pw_JZ-249" value="" style="shape=parallelogram;perimeter=parallelogramPerimeter;whiteSpace=wrap;html=1;fixedSize=1;size=20;fillColor=#dae8fc;strokeColor=#6c8ebf;" parent="1" vertex="1">
                    <mxGeometry x="350" y="230" width="60" height="10" as="geometry"/>
                </mxCell>
                <mxCell id="Jtuv1Z3wtPB-kP8Pw_JZ-285" style="edgeStyle=orthogonalEdgeStyle;rounded=0;orthogonalLoop=1;jettySize=auto;html=1;entryX=0.5;entryY=1;entryDx=0;entryDy=0;shadow=0;endSize=1;strokeWidth=2;fillColor=#dae8fc;strokeColor=#6c8ebf;exitX=0.5;exitY=1;exitDx=0;exitDy=0;" parent="1" source="Jtuv1Z3wtPB-kP8Pw_JZ-244" target="Jtuv1Z3wtPB-kP8Pw_JZ-279" edge="1">
                    <mxGeometry relative="1" as="geometry">
                        <mxPoint x="390" y="260" as="sourcePoint"/>
                        <Array as="points">
                            <mxPoint x="410" y="260"/>
                        </Array>
                    </mxGeometry>
                </mxCell>
                <mxCell id="Jtuv1Z3wtPB-kP8Pw_JZ-286" style="edgeStyle=orthogonalEdgeStyle;rounded=0;orthogonalLoop=1;jettySize=auto;html=1;exitX=0.5;exitY=1;exitDx=0;exitDy=0;entryX=0.491;entryY=-0.044;entryDx=0;entryDy=0;shadow=0;endSize=1;strokeWidth=2;entryPerimeter=0;fillColor=#dae8fc;strokeColor=#6c8ebf;" parent="1" source="Jtuv1Z3wtPB-kP8Pw_JZ-244" target="Jtuv1Z3wtPB-kP8Pw_JZ-287" edge="1">
                    <mxGeometry relative="1" as="geometry">
                        <mxPoint x="400" y="290" as="targetPoint"/>
                        <Array as="points">
                            <mxPoint x="410" y="275"/>
                            <mxPoint x="395" y="275"/>
                        </Array>
                    </mxGeometry>
                </mxCell>
                <mxCell id="Jtuv1Z3wtPB-kP8Pw_JZ-250" value="" style="rounded=0;whiteSpace=wrap;html=1;strokeColor=#6c8ebf;fillColor=#8FBDFF;" parent="1" vertex="1">
                    <mxGeometry x="350" y="240" width="40" height="20" as="geometry"/>
                </mxCell>
                <mxCell id="Jtuv1Z3wtPB-kP8Pw_JZ-251" value="" style="shape=parallelogram;perimeter=parallelogramPerimeter;whiteSpace=wrap;html=1;fixedSize=1;size=20;fillColor=#dae8fc;strokeColor=#6c8ebf;" parent="1" vertex="1">
                    <mxGeometry x="370" y="220" width="60" height="10" as="geometry"/>
                </mxCell>
                <mxCell id="Jtuv1Z3wtPB-kP8Pw_JZ-252" value="" style="shape=parallelogram;perimeter=parallelogramPerimeter;whiteSpace=wrap;html=1;fixedSize=1;size=20;fillColor=#dae8fc;strokeColor=#6c8ebf;" parent="1" vertex="1">
                    <mxGeometry x="390" y="210" width="60" height="10" as="geometry"/>
                </mxCell>
                <mxCell id="Jtuv1Z3wtPB-kP8Pw_JZ-253" value="" style="shape=parallelogram;perimeter=parallelogramPerimeter;whiteSpace=wrap;html=1;fixedSize=1;size=20;fillColor=#dae8fc;strokeColor=#6c8ebf;" parent="1" vertex="1">
                    <mxGeometry x="410" y="200" width="60" height="10" as="geometry"/>
                </mxCell>
                <mxCell id="Jtuv1Z3wtPB-kP8Pw_JZ-254" value="" style="shape=parallelogram;perimeter=parallelogramPerimeter;whiteSpace=wrap;html=1;fixedSize=1;size=20;fillColor=#dae8fc;strokeColor=#6c8ebf;" parent="1" vertex="1">
                    <mxGeometry x="310" y="230" width="60" height="10" as="geometry"/>
                </mxCell>
                <mxCell id="Jtuv1Z3wtPB-kP8Pw_JZ-255" value="" style="rounded=0;whiteSpace=wrap;html=1;strokeColor=#6c8ebf;fillColor=#8FBDFF;" parent="1" vertex="1">
                    <mxGeometry x="310" y="240" width="40" height="20" as="geometry"/>
                </mxCell>
                <mxCell id="Jtuv1Z3wtPB-kP8Pw_JZ-256" value="" style="shape=parallelogram;perimeter=parallelogramPerimeter;whiteSpace=wrap;html=1;fixedSize=1;size=20;fillColor=#dae8fc;strokeColor=#6c8ebf;" parent="1" vertex="1">
                    <mxGeometry x="330" y="220" width="60" height="10" as="geometry"/>
                </mxCell>
                <mxCell id="Jtuv1Z3wtPB-kP8Pw_JZ-257" value="" style="shape=parallelogram;perimeter=parallelogramPerimeter;whiteSpace=wrap;html=1;fixedSize=1;size=20;fillColor=#dae8fc;strokeColor=#6c8ebf;" parent="1" vertex="1">
                    <mxGeometry x="350" y="210" width="60" height="10" as="geometry"/>
                </mxCell>
                <mxCell id="Jtuv1Z3wtPB-kP8Pw_JZ-258" value="" style="shape=parallelogram;perimeter=parallelogramPerimeter;whiteSpace=wrap;html=1;fixedSize=1;size=20;fillColor=#dae8fc;strokeColor=#6c8ebf;" parent="1" vertex="1">
                    <mxGeometry x="370" y="200" width="60" height="10" as="geometry"/>
                </mxCell>
                <mxCell id="Jtuv1Z3wtPB-kP8Pw_JZ-259" value="" style="shape=parallelogram;perimeter=parallelogramPerimeter;whiteSpace=wrap;html=1;fixedSize=1;size=20;fillColor=#dae8fc;strokeColor=#6c8ebf;" parent="1" vertex="1">
                    <mxGeometry x="190" y="230" width="60" height="10" as="geometry"/>
                </mxCell>
                <mxCell id="Jtuv1Z3wtPB-kP8Pw_JZ-260" value="" style="rounded=0;whiteSpace=wrap;html=1;strokeColor=#6c8ebf;fillColor=#8FBDFF;" parent="1" vertex="1">
                    <mxGeometry x="190" y="240" width="40" height="20" as="geometry"/>
                </mxCell>
                <mxCell id="Jtuv1Z3wtPB-kP8Pw_JZ-261" value="" style="shape=parallelogram;perimeter=parallelogramPerimeter;whiteSpace=wrap;html=1;fixedSize=1;size=20;fillColor=#dae8fc;strokeColor=#6c8ebf;" parent="1" vertex="1">
                    <mxGeometry x="210" y="220" width="60" height="10" as="geometry"/>
                </mxCell>
                <mxCell id="Jtuv1Z3wtPB-kP8Pw_JZ-262" value="" style="shape=parallelogram;perimeter=parallelogramPerimeter;whiteSpace=wrap;html=1;fixedSize=1;size=20;fillColor=#dae8fc;strokeColor=#6c8ebf;" parent="1" vertex="1">
                    <mxGeometry x="230" y="210" width="60" height="10" as="geometry"/>
                </mxCell>
                <mxCell id="Jtuv1Z3wtPB-kP8Pw_JZ-263" value="" style="shape=parallelogram;perimeter=parallelogramPerimeter;whiteSpace=wrap;html=1;fixedSize=1;size=20;fillColor=#dae8fc;strokeColor=#6c8ebf;" parent="1" vertex="1">
                    <mxGeometry x="250" y="200" width="60" height="10" as="geometry"/>
                </mxCell>
                <mxCell id="Jtuv1Z3wtPB-kP8Pw_JZ-264" value="" style="shape=parallelogram;perimeter=parallelogramPerimeter;whiteSpace=wrap;html=1;fixedSize=1;size=20;fillColor=#dae8fc;strokeColor=#6c8ebf;" parent="1" vertex="1">
                    <mxGeometry x="150" y="230" width="60" height="10" as="geometry"/>
                </mxCell>
                <mxCell id="Jtuv1Z3wtPB-kP8Pw_JZ-265" value="" style="rounded=0;whiteSpace=wrap;html=1;strokeColor=#6c8ebf;fillColor=#8FBDFF;" parent="1" vertex="1">
                    <mxGeometry x="150" y="240" width="40" height="20" as="geometry"/>
                </mxCell>
                <mxCell id="Jtuv1Z3wtPB-kP8Pw_JZ-266" value="" style="shape=parallelogram;perimeter=parallelogramPerimeter;whiteSpace=wrap;html=1;fixedSize=1;size=20;fillColor=#dae8fc;strokeColor=#6c8ebf;" parent="1" vertex="1">
                    <mxGeometry x="170" y="220" width="60" height="10" as="geometry"/>
                </mxCell>
                <mxCell id="Jtuv1Z3wtPB-kP8Pw_JZ-267" value="" style="shape=parallelogram;perimeter=parallelogramPerimeter;whiteSpace=wrap;html=1;fixedSize=1;size=20;fillColor=#dae8fc;strokeColor=#6c8ebf;" parent="1" vertex="1">
                    <mxGeometry x="190" y="210" width="60" height="10" as="geometry"/>
                </mxCell>
                <mxCell id="Jtuv1Z3wtPB-kP8Pw_JZ-268" value="" style="shape=parallelogram;perimeter=parallelogramPerimeter;whiteSpace=wrap;html=1;fixedSize=1;size=20;fillColor=#dae8fc;strokeColor=#6c8ebf;" parent="1" vertex="1">
                    <mxGeometry x="210" y="200" width="60" height="10" as="geometry"/>
                </mxCell>
                <mxCell id="Jtuv1Z3wtPB-kP8Pw_JZ-269" value="" style="endArrow=classic;html=1;strokeWidth=8;endSize=0;fillColor=#e1d5e7;strokeColor=#9673a6;shadow=0;exitX=0.75;exitY=1;exitDx=0;exitDy=0;" parent="1" source="Jtuv1Z3wtPB-kP8Pw_JZ-165" edge="1">
                    <mxGeometry width="50" height="50" relative="1" as="geometry">
                        <mxPoint x="640" y="510" as="sourcePoint"/>
                        <mxPoint x="740" y="510" as="targetPoint"/>
                    </mxGeometry>
                </mxCell>
                <mxCell id="Jtuv1Z3wtPB-kP8Pw_JZ-270" value="" style="endArrow=classic;html=1;strokeWidth=8;endSize=0;fillColor=#dae8fc;strokeColor=#6c8ebf;shadow=0;" parent="1" edge="1">
                    <mxGeometry width="50" height="50" relative="1" as="geometry">
                        <mxPoint x="60" y="220" as="sourcePoint"/>
                        <mxPoint x="180" y="220" as="targetPoint"/>
                    </mxGeometry>
                </mxCell>
                <mxCell id="Jtuv1Z3wtPB-kP8Pw_JZ-284" style="edgeStyle=orthogonalEdgeStyle;rounded=0;orthogonalLoop=1;jettySize=auto;html=1;exitX=0.16;exitY=0.55;exitDx=0;exitDy=0;entryX=0.25;entryY=1;entryDx=0;entryDy=0;shadow=0;endSize=1;strokeWidth=2;exitPerimeter=0;" parent="1" source="Jtuv1Z3wtPB-kP8Pw_JZ-293" target="Jtuv1Z3wtPB-kP8Pw_JZ-279" edge="1">
                    <mxGeometry relative="1" as="geometry">
                        <mxPoint x="460" y="320" as="sourcePoint"/>
                        <Array as="points">
                            <mxPoint x="425" y="308"/>
                        </Array>
                    </mxGeometry>
                </mxCell>
                <mxCell id="Jtuv1Z3wtPB-kP8Pw_JZ-275" value="SIPO" style="text;html=1;strokeColor=#666666;fillColor=#f5f5f5;align=center;verticalAlign=middle;whiteSpace=wrap;rounded=1;shadow=0;fontColor=#333333;arcSize=50;" parent="1" vertex="1">
                    <mxGeometry x="650" y="230" width="40" height="20" as="geometry"/>
                </mxCell>
                <mxCell id="Jtuv1Z3wtPB-kP8Pw_JZ-277" value="PISO" style="text;html=1;strokeColor=#666666;fillColor=#f5f5f5;align=center;verticalAlign=middle;whiteSpace=wrap;rounded=1;shadow=0;fontColor=#333333;arcSize=50;" parent="1" vertex="1">
                    <mxGeometry x="310" y="490" width="40" height="20" as="geometry"/>
                </mxCell>
                <mxCell id="Jtuv1Z3wtPB-kP8Pw_JZ-280" style="edgeStyle=orthogonalEdgeStyle;rounded=0;orthogonalLoop=1;jettySize=auto;html=1;exitX=0.5;exitY=1;exitDx=0;exitDy=0;entryX=0.75;entryY=1;entryDx=0;entryDy=0;shadow=0;endSize=1;strokeWidth=2;fillColor=#d5e8d4;strokeColor=#82b366;" parent="1" source="Jtuv1Z3wtPB-kP8Pw_JZ-287" target="Jtuv1Z3wtPB-kP8Pw_JZ-279" edge="1">
                    <mxGeometry relative="1" as="geometry">
                        <mxPoint x="410" y="310" as="sourcePoint"/>
                    </mxGeometry>
                </mxCell>
                <mxCell id="Jtuv1Z3wtPB-kP8Pw_JZ-281" style="edgeStyle=orthogonalEdgeStyle;rounded=0;orthogonalLoop=1;jettySize=auto;html=1;exitX=0.5;exitY=0;exitDx=0;exitDy=0;shadow=0;endSize=1;strokeWidth=2;" parent="1" source="Jtuv1Z3wtPB-kP8Pw_JZ-279" edge="1">
                    <mxGeometry relative="1" as="geometry">
                        <mxPoint x="410" y="380" as="targetPoint"/>
                    </mxGeometry>
                </mxCell>
                <mxCell id="Jtuv1Z3wtPB-kP8Pw_JZ-279" value="" style="shape=trapezoid;perimeter=trapezoidPerimeter;whiteSpace=wrap;html=1;fixedSize=1;rounded=0;shadow=1;strokeColor=#666666;fillColor=#f5f5f5;direction=west;fontColor=#333333;" parent="1" vertex="1">
                    <mxGeometry x="380" y="340" width="60" height="10" as="geometry"/>
                </mxCell>
                <mxCell id="Jtuv1Z3wtPB-kP8Pw_JZ-287" value="" style="shape=orEllipse;perimeter=ellipsePerimeter;whiteSpace=wrap;html=1;backgroundOutline=1;rounded=0;shadow=0;strokeColor=#000000;fillColor=none;gradientColor=none;strokeWidth=2;" parent="1" vertex="1">
                    <mxGeometry x="385" y="290" width="20" height="20" as="geometry"/>
                </mxCell>
                <mxCell id="Jtuv1Z3wtPB-kP8Pw_JZ-291" style="edgeStyle=orthogonalEdgeStyle;rounded=0;orthogonalLoop=1;jettySize=auto;html=1;exitX=0.5;exitY=0;exitDx=0;exitDy=0;entryX=0.318;entryY=-0.093;entryDx=0;entryDy=0;shadow=0;endSize=1;strokeWidth=2;entryPerimeter=0;" parent="1" source="Jtuv1Z3wtPB-kP8Pw_JZ-290" target="Jtuv1Z3wtPB-kP8Pw_JZ-175" edge="1">
                    <mxGeometry relative="1" as="geometry">
                        <Array as="points">
                            <mxPoint x="509" y="470"/>
                        </Array>
                    </mxGeometry>
                </mxCell>
                <mxCell id="Jtuv1Z3wtPB-kP8Pw_JZ-290" value="" style="shape=trapezoid;perimeter=trapezoidPerimeter;whiteSpace=wrap;html=1;fixedSize=1;rounded=0;shadow=1;strokeColor=#666666;fillColor=#f5f5f5;direction=west;fontColor=#333333;" parent="1" vertex="1">
                    <mxGeometry x="479" y="460" width="60" height="10" as="geometry"/>
                </mxCell>
                <mxCell id="Jtuv1Z3wtPB-kP8Pw_JZ-293" value="&lt;span&gt;Permutation&lt;br&gt;Round&lt;/span&gt;" style="ellipse;shape=cloud;whiteSpace=wrap;html=1;rounded=1;shadow=1;strokeColor=#666666;strokeWidth=1;fillColor=#f5f5f5;fontColor=#333333;spacingTop=5;spacingLeft=10;fontSize=20;" parent="1" vertex="1">
                    <mxGeometry x="430" y="260" width="170" height="110" as="geometry"/>
                </mxCell>
                <mxCell id="Jtuv1Z3wtPB-kP8Pw_JZ-295" value="bdi.enq" style="text;html=1;strokeColor=#b85450;fillColor=#f8cecc;align=center;verticalAlign=middle;whiteSpace=wrap;rounded=0;shadow=1;" parent="1" vertex="1">
                    <mxGeometry x="70" y="180" width="50" height="20" as="geometry"/>
                </mxCell>
                <mxCell id="Jtuv1Z3wtPB-kP8Pw_JZ-296" value="bdo.deq" style="text;html=1;strokeColor=#b85450;fillColor=#f8cecc;align=center;verticalAlign=middle;whiteSpace=wrap;rounded=0;shadow=1;" parent="1" vertex="1">
                    <mxGeometry x="680" y="470" width="50" height="20" as="geometry"/>
                </mxCell>
                <mxCell id="Jtuv1Z3wtPB-kP8Pw_JZ-297" value="" style="endArrow=none;html=1;shadow=0;strokeWidth=1;fillColor=#ffe6cc;strokeColor=#d79b00;" parent="1" edge="1">
                    <mxGeometry width="50" height="50" relative="1" as="geometry">
                        <mxPoint x="685" y="300" as="sourcePoint"/>
                        <mxPoint x="695" y="290" as="targetPoint"/>
                    </mxGeometry>
                </mxCell>
            </root>
        </mxGraphModel>
    </diagram>
</mxfile>